<?xml version="1.0" encoding="iso-8859-1"?>
<!-- Generator: Adobe Illustrator 16.0.0, SVG Export Plug-In . SVG Version: 6.00 Build 0)  -->
<!DOCTYPE svg PUBLIC "-//W3C//DTD SVG 1.1//EN" "http://www.w3.org/Graphics/SVG/1.1/DTD/svg11.dtd">
<svg version="1.1" xmlns="http://www.w3.org/2000/svg" xmlns:xlink="http://www.w3.org/1999/xlink" x="0px" y="0px" width="4096px"
	 height="4096px" viewBox="0 0 4096 4096" style="enable-background:new 0 0 4096 4096;" xml:space="preserve">
<g id="Wolf">
	<path style="fill:#374F64;" d="M1862.14,3198.962c-1.997,48.895-4.009,97.925-6.033,147.376
		c-268.519-97.504-433.432-298.496-566.05-544.361c0.781,391.413,488.943,803.108,782.106,815.679
		c-5.572-138.78-11.157-277.908-16.797-418.693H1862.14z"/>
	<path style="fill:#374F64;" d="M3534.51,1823.354c-85.096-66.173-167.624-136.107-256.314-197.075
		c-117.745-80.955-204.866-181.577-249.86-319.173c-23.944-73.209-71.636-131.878-131.633-182.063
		c-97.816-81.818-192.411-167.509-288.189-251.76c-240.762-211.772-447.435-449.623-572.926-749.543
		c-2.065-4.939-6.006-9.102-12.733-19.042c-70.82,214.973-113.993,428.394-115.488,654.693
		c-185.406-53.013-365.566-100.164-556.103-69.068c20.54,87.624,40.041,170.791,60.649,258.714
		c-171.871-16.195-333.231-18.332-483.767,71.833c48.256,53.073,49.791,107.923,27.383,163.082
		c-12.319,30.321-30.617,59.871-52.218,84.516c-248.515,283.64-390.469,612.036-413.21,989.092
		c-17.571,291.355,35.78,568.163,187.179,821.496c24.155,40.428,54.045,77.432,81.285,116.019
		c0.632-22.789-6.829-40.537-14.392-58.244c-91.374-213.943-153.783-435.354-156.365-669.309
		c-4.675-423.745,152.778-780.275,456.037-1074.113c108.131-104.771,124.281-183.412,63.965-318.741
		c26.153-3.062,51.715-9.761,76.827-8.385c129.819,7.142,259.529,16.338,395.857,25.253
		c28.082-77.901,12.938-161.163-37.397-245.227c196.135,19.892,378.137,65.874,549.491,159.206
		c-5.212-157.593,7.202-309.834,33.851-452.852c194.313,198.262,388.587,396.479,575.216,586.899
		c-94.996,9.315-200.952,19.712-312.045,30.613c26.187,55.343,51.64,118.581,85.09,177.256c36.888,64.686,95.2,95.363,172.204,85.26
		c19.235-2.524,39.619-1.196,58.855,2.031c183.951,30.817,299.569,159.098,419.088,289.623
		c-49.812,8.385-93.325,15.712-147.975,24.916c84.227,68.123,115.944,148.722,116.379,244.285c-13.575,0-21.213,0.696-28.666-0.181
		c-9.003-1.063-17.891-3.254-26.744-5.33c-127.903-29.924-242.121-88.653-343.131-171.182
		c-35.509-29.013-72.139-48.731-116.372-56.079c-41.902-6.958-83.636-15.917-125.816-19.953
		c-166.734-15.954-284.744,33.202-352.025,145.688c41.991,42.1,83.888,84.308,125.613,126.68
		c36.827-45.552,78.784-85.019,108.273-89.748c40.136-6.444,81.828-8.112,122.453-5.721
		c172.625,10.179,319.975,85.782,460.121,180.401c45.001,30.386,92.625,57.429,141.254,81.57c14.785,7.345,38.22,3.894,55.472-1.597
		c53.345-16.974,105.439-37.847,158.37-56.199c64.38-22.334,131.538-38.484,192.799-67.311
		c37.813-17.789,74.319-49.044,98.169-83.442C3602.627,1914.036,3589.207,1865.896,3534.51,1823.354"/>
	<path style="fill:#D54143;" d="M2313.108,3720.907c-728.3,0-1318.694-590.408-1318.694-1318.701
		c0-487.559,264.618-913.268,658.035-1141.466c-515.565,212.435-878.516,719.799-878.516,1312.019
		c0,783.445,635.104,1418.542,1418.535,1418.542c758.672,0,1378.223-595.579,1416.646-1344.691
		C3494.496,3258.116,2957.888,3720.907,2313.108,3720.907"/>
</g>
<g id="_x30_4">
	<path style="fill:#394F64;" d="M2693.848,2722.941h-255.901l127.373-128.528c-48.065-48.065-96.131-96.131-144.189-144.196
		l-176.695,176.702v23.271l273.533,274.994h225.521v-152.608L2693.848,2722.941z"/>
	<path style="fill:#394F64;" d="M2758.029,2787.123v245.723l212.429,208.06v-241.36
		C2899.65,2928.738,2828.837,2857.931,2758.029,2787.123"/>
	<polygon style="fill:#D34242;" points="1703.07,2377.052 1703.07,2097.683 2003.489,2097.683 2003.489,2377.052 2215.374,2377.052 
		2215.374,2103.492 2007.838,1895.959 1697.261,1895.959 1489.725,2103.492 1489.725,2377.052 	"/>
	<polygon style="fill:#394F64;" points="2003.489,2438.489 2003.489,2729.002 1703.07,2729.002 1703.07,2438.489 1489.731,2438.489 
		1489.731,2723.192 1697.268,2930.729 2007.845,2930.729 2215.374,2723.192 2215.374,2438.489 	"/>
	<polygon style="fill:#D34242;" points="2608.567,2550.771 2758.029,2399.943 2758.029,2700.233 2970.458,2912.662 
		2970.458,2405.767 2763.846,2197.707 2673.646,2197.707 2464.575,2406.778 	"/>
</g>
<g id="Armour">
	<polygon style="fill:#D34242;" points="1574.726,3020.921 1623.104,2972.203 1696.343,2972.203 1745.061,3020.921 
		1745.061,3143.897 1694.984,3095.187 1694.984,3019.556 1624.463,3019.556 1624.463,3095.187 1691.573,3095.187 1644.222,3142.532 
		1623.104,3142.532 1574.726,3093.821 	"/>
	<path style="fill:#D34242;" d="M1772.301,3094.161v-121.618h49.744v171.354L1772.301,3094.161z M1874.846,3019.896h-52.801
		l47.352-47.353h5.449V3019.896z"/>
	<path style="fill:#D34242;" d="M1902.093,3142.539v-171.694l49.743,48.718v122.977H1902.093z M1999.528,2972.203l-47.692,47.359
		h53.142v122.977h49.736v-122.977l-48.711-47.359H1999.528z M2102.066,2972.203l-47.353,47.359h53.142v75.624l49.743,48.371
		v-122.637l-48.718-48.718H2102.066z"/>
	<path style="fill:#D34242;" d="M2184.846,3020.921l48.364-48.711h73.246l48.718,48.711v72.9l-50.083,48.711h-71.881l-48.364-48.711
		V3020.921z M2305.091,3019.556h-70.516v75.631h70.516V3019.556z"/>
	<path style="fill:#D34242;" d="M2382.421,2972.203h50.083v122.983h52.802l-47.353,47.346h-6.814l-48.718-48.711V2972.203z
		 M2535.382,3020.921v122.977l-50.076-48.711v-124.342L2535.382,3020.921z"/>
	<path style="fill:#D34242;" d="M2562.636,3094.161v-121.618h49.729v171.354L2562.636,3094.161z M2665.167,3019.896h-52.802
		l47.346-47.353h5.456V3019.896z"/>
	<polygon style="fill:#394F64;" points="1624.463,3064.054 1624.463,3019.556 1694.984,3019.556 1694.984,3064.054 
		1745.061,3064.054 1745.061,3020.921 1696.343,2972.21 1623.104,2972.21 1574.732,3020.921 1574.732,3064.054 	"/>
	<rect x="1772.314" y="2972.543" style="fill:#394F64;" width="49.73" height="91.511"/>
	<polygon style="fill:#394F64;" points="1874.846,2972.543 1869.396,2972.543 1822.045,3019.901 1874.846,3019.901 	"/>
	<polygon style="fill:#394F64;" points="2004.978,3064.054 2054.714,3064.054 2054.714,3019.556 2006.003,2972.21 1999.528,2972.21 
		1951.829,3019.556 2004.978,3019.556 	"/>
	<polygon style="fill:#394F64;" points="2107.855,3064.054 2157.592,3064.054 2157.592,3020.921 2108.881,2972.21 2102.066,2972.21 
		2054.714,3019.556 2107.855,3019.556 	"/>
	<polygon style="fill:#394F64;" points="1951.829,3064.054 1951.829,3019.556 1902.1,2970.845 1902.1,3064.054 	"/>
	<polygon style="fill:#394F64;" points="2234.582,3064.054 2234.582,3019.556 2305.098,3019.556 2305.098,3064.054 
		2355.181,3064.054 2355.181,3020.921 2306.463,2972.21 2233.217,2972.21 2184.846,3020.921 2184.846,3064.054 	"/>
	<polygon style="fill:#394F64;" points="2535.382,3064.054 2535.382,3020.921 2485.306,2970.845 2485.306,3064.054 	"/>
	<rect x="2382.428" y="2972.21" style="fill:#394F64;" width="50.076" height="91.844"/>
	<polygon style="fill:#394F64;" points="2659.718,2972.543 2612.365,3019.901 2665.174,3019.901 2665.174,2972.543 	"/>
	<rect x="2562.629" y="2972.543" style="fill:#394F64;" width="49.73" height="91.511"/>
</g>
</svg>
